# 3ds Max Wavefront OBJ Exporter v0.99 - (c)2007 guruware
# File Created: 11.11.2025 23:30:28

mtllib pastilla.mtl

#
# object Capsule001
#

v  -0.7810 19.6953 -0.0000
v  -1.1335 19.6953 -2.7056
v  -1.1340 21.0478 -2.3432
v  -1.1353 22.0380 -1.3531
v  -1.1372 22.4004 -0.0005
v  -1.1390 22.0380 1.3521
v  -1.1404 21.0478 2.3422
v  -1.1409 19.6953 2.7047
v  -1.1404 18.3427 2.3422
v  -1.1390 17.3525 1.3521
v  -1.1372 16.9901 -0.0005
v  -1.1353 17.3525 -1.3531
v  -1.1340 18.3427 -2.3432
v  -2.1742 19.6953 -5.2278
v  -2.1751 22.3082 -4.5277
v  -2.1778 24.2211 -2.6149
v  -2.1813 24.9212 -0.0019
v  -2.1849 24.2211 2.6111
v  -2.1875 22.3082 4.5239
v  -2.1884 19.6953 5.2240
v  -2.1875 17.0823 4.5239
v  -2.1849 15.1695 2.6111
v  -2.1813 14.4693 -0.0019
v  -2.1778 15.1695 -2.6149
v  -2.1752 17.0823 -4.5277
v  -3.8322 19.6953 -7.3948
v  -3.8336 23.3906 -6.4046
v  -3.8373 26.0957 -3.6995
v  -3.8423 27.0859 -0.0042
v  -3.8474 26.0957 3.6911
v  -3.8510 23.3906 6.3963
v  -3.8524 19.6953 7.3864
v  -3.8510 16.0000 6.3963
v  -3.8474 13.2948 3.6911
v  -3.8423 12.3047 -0.0042
v  -3.8373 13.2948 -3.6995
v  -3.8336 16.0000 -6.4046
v  -5.9946 19.6953 -9.0587
v  -5.9963 24.2211 -7.8460
v  -6.0008 27.5342 -4.5329
v  -6.0070 28.7469 -0.0071
v  -6.0131 27.5342 4.5187
v  -6.0177 24.2211 7.8318
v  -6.0193 19.6953 9.0445
v  -6.0177 15.1695 7.8318
v  -6.0131 11.8563 4.5187
v  -6.0070 10.6437 -0.0071
v  -6.0008 11.8563 -4.5329
v  -5.9963 15.1695 -7.8460
v  -8.5140 19.6953 -10.1063
v  -8.5158 24.7431 -8.7537
v  -8.5209 28.4384 -5.0584
v  -8.5278 29.7910 -0.0106
v  -8.5346 28.4384 5.0373
v  -8.5397 24.7431 8.7326
v  -8.5415 19.6953 10.0852
v  -8.5397 14.6474 8.7326
v  -8.5346 10.9521 5.0373
v  -8.5278 9.5995 -0.0106
v  -8.5209 10.9521 -5.0584
v  -8.5158 14.6474 -8.7537
v  -11.2187 19.6953 -10.4661
v  -11.2206 24.9212 -9.0658
v  -11.2258 28.7469 -5.2402
v  -11.2329 30.1471 -0.0142
v  -11.2400 28.7469 5.2117
v  -11.2452 24.9212 9.0373
v  -11.2472 19.6953 10.4376
v  -11.2452 14.4693 9.0373
v  -11.2400 10.6437 5.2117
v  -11.2329 9.2434 -0.0142
v  -11.2258 10.6437 -5.2402
v  -11.2206 14.4693 -9.0658
v  -29.1778 19.6953 -10.4906
v  -29.1797 24.9212 -9.0903
v  -29.1849 28.7469 -5.2647
v  -29.1920 30.1471 -0.0387
v  -29.1992 28.7469 5.1872
v  -29.2044 24.9212 9.0129
v  -29.2063 19.6953 10.4132
v  -29.2044 14.4693 9.0129
v  -29.1992 10.6437 5.1872
v  -29.1920 9.2434 -0.0387
v  -29.1849 10.6437 -5.2647
v  -29.1797 14.4693 -9.0903
v  -52.0345 19.6953 -11.2374
v  -54.9254 19.6953 -10.8608
v  -54.9273 25.0887 -9.4156
v  -52.0365 25.2790 -9.7412
v  -54.9327 29.0371 -5.4673
v  -52.0421 29.3666 -5.6536
v  -54.9401 30.4822 -0.0738
v  -52.0497 30.8628 -0.0699
v  -54.9474 29.0371 5.3197
v  -52.0573 29.3666 5.5139
v  -54.9528 25.0887 9.2680
v  -52.0629 25.2790 9.6014
v  -54.9548 19.6953 10.7131
v  -52.0649 19.6953 11.0976
v  -54.9528 14.3018 9.2680
v  -52.0629 14.1115 9.6014
v  -54.9474 10.3535 5.3197
v  -52.0573 10.0239 5.5139
v  -54.9401 8.9083 -0.0738
v  -52.0497 8.5278 -0.0699
v  -54.9327 10.3535 -5.4673
v  -52.0421 10.0239 -5.6536
v  -54.9273 14.3018 -9.4156
v  -52.0365 14.1115 -9.7412
v  -57.6203 19.6953 -9.7488
v  -57.6220 24.5309 -8.4531
v  -57.6269 28.0709 -4.9131
v  -57.6335 29.3666 -0.0775
v  -57.6401 28.0709 4.7582
v  -57.6449 24.5309 8.2981
v  -57.6466 19.6953 9.5938
v  -57.6449 14.8596 8.2981
v  -57.6401 11.3196 4.7582
v  -57.6335 10.0239 -0.0775
v  -57.6269 11.3196 -4.9131
v  -57.6220 14.8596 -8.4531
v  -59.9356 19.6953 -7.9772
v  -59.9370 23.6436 -6.9193
v  -59.9409 26.5339 -4.0289
v  -59.9463 27.5919 -0.0806
v  -59.9517 26.5339 3.8677
v  -59.9556 23.6436 6.7580
v  -59.9571 19.6953 7.8160
v  -59.9556 15.7470 6.7580
v  -59.9517 12.8566 3.8677
v  -59.9463 11.7987 -0.0806
v  -59.9409 12.8566 -4.0289
v  -59.9370 15.7470 -6.9193
v  -61.7134 19.6953 -5.6668
v  -61.7145 22.4871 -4.9187
v  -61.7172 24.5309 -2.8749
v  -61.7210 25.2790 -0.0831
v  -61.7248 24.5309 2.7088
v  -61.7276 22.4871 4.7526
v  -61.7286 19.6953 5.5007
v  -61.7276 16.9034 4.7526
v  -61.7249 14.8596 2.7088
v  -61.7210 14.1115 -0.0831
v  -61.7172 14.8596 -2.8749
v  -61.7145 16.9034 -4.9187
v  -62.8327 19.6953 -2.9749
v  -62.8333 21.1404 -2.5877
v  -62.8347 22.1984 -1.5298
v  -62.8367 22.5856 -0.0846
v  -62.8386 22.1984 1.3606
v  -62.8401 21.1404 2.4185
v  -62.8406 19.6953 2.8058
v  -62.8401 18.2501 2.4185
v  -62.8386 17.1921 1.3606
v  -62.8367 16.8049 -0.0846
v  -62.8347 17.1921 -1.5298
v  -62.8333 18.2501 -2.5877
v  -63.2172 19.6953 -0.0851
v  -27.5657 19.6953 -11.2040
v  -29.8698 19.6953 -11.2071
v  -29.8719 25.2790 -9.7110
v  -27.5677 25.2790 -9.7078
v  -29.8775 29.3666 -5.6234
v  -27.5733 29.3666 -5.6203
v  -29.8851 30.8628 -0.0397
v  -27.5809 30.8628 -0.0365
v  -29.8927 29.3666 5.5441
v  -27.5885 29.3666 5.5472
v  -29.8982 25.2790 9.6317
v  -27.5941 25.2790 9.6348
v  -29.9003 19.6953 11.1278
v  -27.5961 19.6953 11.1310
v  -29.8982 14.1115 9.6317
v  -27.5941 14.1115 9.6348
v  -29.8927 10.0239 5.5441
v  -27.5885 10.0239 5.5472
v  -29.8851 8.5278 -0.0397
v  -27.5809 8.5278 -0.0365
v  -29.8775 10.0239 -5.6234
v  -27.5733 10.0239 -5.6203
v  -29.8719 14.1115 -9.7110
v  -27.5677 14.1115 -9.7078
# 182 vertices

vn 1.0000 -0.0000 0.0014
vn 0.9607 -0.0000 -0.2776
vn 0.9607 0.1394 -0.2402
vn 0.9605 0.2415 -0.1381
vn 0.9603 0.2789 0.0013
vn 0.9601 0.2415 0.1407
vn 0.9600 0.1394 0.2428
vn 0.9599 -0.0000 0.2802
vn 0.9600 -0.1394 0.2428
vn 0.9601 -0.2415 0.1407
vn 0.9603 -0.2789 0.0013
vn 0.9605 -0.2415 -0.1381
vn 0.9607 -0.1394 -0.2402
vn 0.8573 -0.0000 -0.5148
vn 0.8572 0.2580 -0.4456
vn 0.8570 0.4468 -0.2568
vn 0.8566 0.5159 0.0012
vn 0.8563 0.4468 0.2591
vn 0.8560 0.2580 0.4480
vn 0.8559 0.0000 0.5171
vn 0.8560 -0.2580 0.4480
vn 0.8563 -0.4468 0.2591
vn 0.8566 -0.5159 0.0012
vn 0.8570 -0.4468 -0.2568
vn 0.8572 -0.2580 -0.4456
vn 0.6974 -0.0000 -0.7167
vn 0.6973 0.3588 -0.6205
vn 0.6969 0.6215 -0.3579
vn 0.6965 0.7176 0.0009
vn 0.6960 0.6215 0.3597
vn 0.6956 0.3588 0.6224
vn 0.6955 0.0000 0.7185
vn 0.6956 -0.3588 0.6224
vn 0.6960 -0.6215 0.3597
vn 0.6965 -0.7176 0.0009
vn 0.6969 -0.6215 -0.3579
vn 0.6973 -0.3588 -0.6205
vn 0.4921 -0.0000 -0.8706
vn 0.4919 0.4356 -0.7538
vn 0.4915 0.7545 -0.4349
vn 0.4909 0.8712 0.0007
vn 0.4903 0.7545 0.4363
vn 0.4899 0.4356 0.7552
vn 0.4897 0.0000 0.8719
vn 0.4899 -0.4356 0.7552
vn 0.4903 -0.7545 0.4363
vn 0.4909 -0.8712 0.0007
vn 0.4915 -0.7545 -0.4349
vn 0.4919 -0.4356 -0.7538
vn 0.2549 -0.0000 -0.9670
vn 0.2547 0.4837 -0.8374
vn 0.2543 0.8377 -0.4833
vn 0.2536 0.9673 0.0003
vn 0.2529 0.8377 0.4840
vn 0.2525 0.4837 0.8381
vn 0.2523 0.0000 0.9677
vn 0.2525 -0.4837 0.8381
vn 0.2529 -0.8377 0.4840
vn 0.2536 -0.9673 0.0003
vn 0.2543 -0.8377 -0.4833
vn 0.2547 -0.4837 -0.8374
vn 0.0661 -0.0000 -0.9978
vn 0.0659 0.4990 -0.8641
vn 0.0654 0.8642 -0.4989
vn 0.0647 0.9979 0.0001
vn 0.0640 0.8642 0.4990
vn 0.0635 0.4989 0.8643
vn 0.0634 0.0000 0.9980
vn 0.0635 -0.4990 0.8643
vn 0.0640 -0.8642 0.4990
vn 0.0647 -0.9979 0.0001
vn 0.0654 -0.8642 -0.4989
vn 0.0659 -0.4990 -0.8641
vn 0.9991 -0.0000 -0.0432
vn 0.9991 0.0223 -0.0372
vn 0.9990 0.0386 -0.0209
vn 0.9990 0.0446 0.0014
vn 0.9990 0.0384 0.0235
vn 0.9990 0.0221 0.0398
vn 0.9989 0.0000 0.0459
vn 0.9990 -0.0223 0.0400
vn 0.9990 -0.0386 0.0236
vn 0.9990 -0.0446 0.0014
vn 0.9990 -0.0386 -0.0209
vn 0.9991 -0.0223 -0.0372
vn -0.0634 -0.0000 -0.9980
vn -0.2523 -0.0000 -0.9677
vn -0.2525 0.4837 -0.8381
vn -0.0635 0.4989 -0.8643
vn -0.2529 0.8377 -0.4840
vn -0.0640 0.8642 -0.4990
vn -0.2536 0.9673 -0.0003
vn -0.0647 0.9979 -0.0001
vn -0.2543 0.8377 0.4833
vn -0.0654 0.8642 0.4989
vn -0.2547 0.4837 0.8374
vn -0.0659 0.4990 0.8641
vn -0.2549 0.0000 0.9670
vn -0.0661 0.0000 0.9978
vn -0.2547 -0.4837 0.8374
vn -0.0659 -0.4990 0.8641
vn -0.2543 -0.8377 0.4833
vn -0.0654 -0.8642 0.4989
vn -0.2536 -0.9673 -0.0003
vn -0.0647 -0.9979 -0.0001
vn -0.2529 -0.8377 -0.4840
vn -0.0640 -0.8642 -0.4990
vn -0.2525 -0.4837 -0.8381
vn -0.0635 -0.4990 -0.8643
vn -0.4897 0.0000 -0.8719
vn -0.4899 0.4356 -0.7552
vn -0.4903 0.7545 -0.4363
vn -0.4909 0.8712 -0.0007
vn -0.4915 0.7545 0.4349
vn -0.4919 0.4356 0.7538
vn -0.4921 0.0000 0.8706
vn -0.4919 -0.4356 0.7538
vn -0.4915 -0.7545 0.4349
vn -0.4909 -0.8712 -0.0007
vn -0.4903 -0.7545 -0.4363
vn -0.4899 -0.4356 -0.7552
vn -0.6955 0.0000 -0.7185
vn -0.6956 0.3588 -0.6224
vn -0.6960 0.6215 -0.3597
vn -0.6965 0.7176 -0.0009
vn -0.6969 0.6215 0.3579
vn -0.6973 0.3588 0.6205
vn -0.6974 0.0000 0.7167
vn -0.6973 -0.3588 0.6205
vn -0.6969 -0.6215 0.3579
vn -0.6965 -0.7176 -0.0009
vn -0.6960 -0.6215 -0.3597
vn -0.6956 -0.3588 -0.6224
vn -0.8559 0.0000 -0.5171
vn -0.8560 0.2580 -0.4480
vn -0.8563 0.4468 -0.2591
vn -0.8566 0.5159 -0.0012
vn -0.8570 0.4468 0.2568
vn -0.8572 0.2580 0.4456
vn -0.8573 0.0000 0.5148
vn -0.8572 -0.2580 0.4456
vn -0.8570 -0.4468 0.2568
vn -0.8566 -0.5159 -0.0012
vn -0.8563 -0.4468 -0.2591
vn -0.8560 -0.2580 -0.4480
vn -0.9599 0.0000 -0.2802
vn -0.9600 0.1394 -0.2428
vn -0.9601 0.2415 -0.1407
vn -0.9603 0.2789 -0.0013
vn -0.9605 0.2415 0.1381
vn -0.9607 0.1394 0.2402
vn -0.9607 0.0000 0.2776
vn -0.9607 -0.1394 0.2402
vn -0.9605 -0.2415 0.1381
vn -0.9603 -0.2789 -0.0013
vn -0.9601 -0.2415 -0.1407
vn -0.9600 -0.1394 -0.2428
vn -1.0000 0.0000 -0.0014
vn 0.9370 -0.0000 -0.3494
vn 0.0014 -0.0000 -1.0000
vn 0.0012 0.5000 -0.8660
vn 0.9369 0.1753 -0.3024
vn 0.0007 0.8660 -0.5000
vn 0.9367 0.3037 -0.1740
vn 0.0000 1.0000 0.0000
vn 0.9365 0.3506 0.0013
vn -0.0007 0.8660 0.5000
vn 0.9363 0.3037 0.1766
vn -0.0012 0.5000 0.8660
vn 0.9361 0.1753 0.3049
vn -0.0014 0.0000 1.0000
vn 0.9360 -0.0000 0.3519
vn -0.0012 -0.5000 0.8660
vn 0.9361 -0.1753 0.3049
vn -0.0007 -0.8660 0.5000
vn 0.9364 -0.3034 0.1765
vn -0.0000 -1.0000 0.0000
vn 0.9366 -0.3504 0.0012
vn 0.0007 -0.8660 -0.5000
vn 0.9367 -0.3037 -0.1740
vn 0.0012 -0.5000 -0.8660
vn 0.9369 -0.1753 -0.3024
# 182 vertex normals

vt 0.5000 0.5000 0.0000
vt 0.6294 0.5000 0.0000
vt 0.6121 0.5647 0.0000
vt 0.5647 0.6121 0.0000
vt 0.5000 0.6294 0.0000
vt 0.4353 0.6121 0.0000
vt 0.3879 0.5647 0.0000
vt 0.3706 0.5000 0.0000
vt 0.3879 0.4353 0.0000
vt 0.4353 0.3879 0.0000
vt 0.5000 0.3706 0.0000
vt 0.5647 0.3879 0.0000
vt 0.6121 0.4353 0.0000
vt 0.7500 0.5000 0.0000
vt 0.7165 0.6250 0.0000
vt 0.6250 0.7165 0.0000
vt 0.5000 0.7500 0.0000
vt 0.3750 0.7165 0.0000
vt 0.2835 0.6250 0.0000
vt 0.2500 0.5000 0.0000
vt 0.2835 0.3750 0.0000
vt 0.3750 0.2835 0.0000
vt 0.5000 0.2500 0.0000
vt 0.6250 0.2835 0.0000
vt 0.7165 0.3750 0.0000
vt 0.8536 0.5000 0.0000
vt 0.8062 0.6768 0.0000
vt 0.6768 0.8062 0.0000
vt 0.5000 0.8536 0.0000
vt 0.3232 0.8062 0.0000
vt 0.1938 0.6768 0.0000
vt 0.1464 0.5000 0.0000
vt 0.1938 0.3232 0.0000
vt 0.3232 0.1938 0.0000
vt 0.5000 0.1464 0.0000
vt 0.6768 0.1938 0.0000
vt 0.8062 0.3232 0.0000
vt 0.9330 0.5000 0.0000
vt 0.8750 0.7165 0.0000
vt 0.7165 0.8750 0.0000
vt 0.5000 0.9330 0.0000
vt 0.2835 0.8750 0.0000
vt 0.1250 0.7165 0.0000
vt 0.0670 0.5000 0.0000
vt 0.1250 0.2835 0.0000
vt 0.2835 0.1250 0.0000
vt 0.5000 0.0670 0.0000
vt 0.7165 0.1250 0.0000
vt 0.8750 0.2835 0.0000
vt 0.9830 0.5000 0.0000
vt 0.9183 0.7415 0.0000
vt 0.7415 0.9183 0.0000
vt 0.5000 0.9830 0.0000
vt 0.2585 0.9183 0.0000
vt 0.0817 0.7415 0.0000
vt 0.0170 0.5000 0.0000
vt 0.0817 0.2585 0.0000
vt 0.2585 0.0817 0.0000
vt 0.5000 0.0170 0.0000
vt 0.7415 0.0817 0.0000
vt 0.9183 0.2585 0.0000
vt 1.0000 0.5000 0.0000
vt 0.9330 0.7500 0.0000
vt 0.7500 0.9330 0.0000
vt 0.5000 1.0000 0.0000
vt 0.2500 0.9330 0.0000
vt 0.0670 0.7500 0.0000
vt 0.0000 0.5000 0.0000
vt 0.0670 0.2500 0.0000
vt 0.2500 0.0670 0.0000
vt 0.5000 0.0000 0.0000
vt 0.7500 0.0670 0.0000
vt 0.9330 0.2500 0.0000
vt 0.0000 1.0000 0.0000
vt 0.0000 0.5605 0.0000
vt 0.0833 0.5605 0.0000
vt 0.0833 1.0000 0.0000
vt 0.1667 0.5605 0.0000
vt 0.1667 1.0000 0.0000
vt 0.2500 0.5605 0.0000
vt 0.2500 1.0000 0.0000
vt 0.3333 0.5605 0.0000
vt 0.3333 1.0000 0.0000
vt 0.4167 0.5605 0.0000
vt 0.4167 1.0000 0.0000
vt 0.5000 0.5605 0.0000
vt 0.5833 0.5605 0.0000
vt 0.5833 1.0000 0.0000
vt 0.6667 0.5605 0.0000
vt 0.6667 1.0000 0.0000
vt 0.7500 0.5605 0.0000
vt 0.7500 1.0000 0.0000
vt 0.8333 0.5605 0.0000
vt 0.8333 1.0000 0.0000
vt 0.9167 0.5605 0.0000
vt 0.9167 1.0000 0.0000
vt 1.0000 0.5605 0.0000
vt 1.0000 1.0000 0.0000
vt 0.0000 0.5077 0.0000
vt 0.0833 0.5077 0.0000
vt 0.1667 0.5077 0.0000
vt 0.2500 0.5077 0.0000
vt 0.3333 0.5077 0.0000
vt 0.4167 0.5077 0.0000
vt 0.5000 0.5077 0.0000
vt 0.5833 0.5077 0.0000
vt 0.6667 0.5077 0.0000
vt 0.7500 0.5077 0.0000
vt 0.8333 0.5077 0.0000
vt 0.9167 0.5077 0.0000
vt 1.0000 0.5077 0.0000
vt 0.0000 0.0000 0.0000
vt 0.0833 0.0000 0.0000
vt 0.1667 0.0000 0.0000
vt 0.2500 0.0000 0.0000
vt 0.3333 0.0000 0.0000
vt 0.4167 0.0000 0.0000
vt 0.5833 0.0000 0.0000
vt 0.6667 0.0000 0.0000
vt 0.7500 0.0000 0.0000
vt 0.8333 0.0000 0.0000
vt 0.9167 0.0000 0.0000
vt 1.0000 0.0000 0.0000
# 123 texture coords

o Capsule001
g Capsule001
usemtl wire_056086164
s 4
f 1/1/1 2/2/2 3/3/3 
f 1/1/1 3/3/3 4/4/4 
f 1/1/1 4/4/4 5/5/5 
f 1/1/1 5/5/5 6/6/6 
f 1/1/1 6/6/6 7/7/7 
f 1/1/1 7/7/7 8/8/8 
f 1/1/1 8/8/8 9/9/9 
f 1/1/1 9/9/9 10/10/10 
f 1/1/1 10/10/10 11/11/11 
f 1/1/1 11/11/11 12/12/12 
f 1/1/1 12/12/12 13/13/13 
f 1/1/1 13/13/13 2/2/2 
f 2/2/2 14/14/14 15/15/15 3/3/3 
f 3/3/3 15/15/15 16/16/16 4/4/4 
f 4/4/4 16/16/16 17/17/17 5/5/5 
f 5/5/5 17/17/17 18/18/18 6/6/6 
f 6/6/6 18/18/18 19/19/19 7/7/7 
f 7/7/7 19/19/19 20/20/20 8/8/8 
f 8/8/8 20/20/20 21/21/21 9/9/9 
f 9/9/9 21/21/21 22/22/22 10/10/10 
f 10/10/10 22/22/22 23/23/23 11/11/11 
f 11/11/11 23/23/23 24/24/24 12/12/12 
f 12/12/12 24/24/24 25/25/25 13/13/13 
f 13/13/13 25/25/25 14/14/14 2/2/2 
f 14/14/14 26/26/26 27/27/27 15/15/15 
f 15/15/15 27/27/27 28/28/28 16/16/16 
f 16/16/16 28/28/28 29/29/29 17/17/17 
f 17/17/17 29/29/29 30/30/30 18/18/18 
f 18/18/18 30/30/30 31/31/31 19/19/19 
f 19/19/19 31/31/31 32/32/32 20/20/20 
f 20/20/20 32/32/32 33/33/33 21/21/21 
f 21/21/21 33/33/33 34/34/34 22/22/22 
f 22/22/22 34/34/34 35/35/35 23/23/23 
f 23/23/23 35/35/35 36/36/36 24/24/24 
f 24/24/24 36/36/36 37/37/37 25/25/25 
f 25/25/25 37/37/37 26/26/26 14/14/14 
f 26/26/26 38/38/38 39/39/39 27/27/27 
f 27/27/27 39/39/39 40/40/40 28/28/28 
f 28/28/28 40/40/40 41/41/41 29/29/29 
f 29/29/29 41/41/41 42/42/42 30/30/30 
f 30/30/30 42/42/42 43/43/43 31/31/31 
f 31/31/31 43/43/43 44/44/44 32/32/32 
f 32/32/32 44/44/44 45/45/45 33/33/33 
f 33/33/33 45/45/45 46/46/46 34/34/34 
f 34/34/34 46/46/46 47/47/47 35/35/35 
f 35/35/35 47/47/47 48/48/48 36/36/36 
f 36/36/36 48/48/48 49/49/49 37/37/37 
f 37/37/37 49/49/49 38/38/38 26/26/26 
f 38/38/38 50/50/50 51/51/51 39/39/39 
f 39/39/39 51/51/51 52/52/52 40/40/40 
f 40/40/40 52/52/52 53/53/53 41/41/41 
f 41/41/41 53/53/53 54/54/54 42/42/42 
f 42/42/42 54/54/54 55/55/55 43/43/43 
f 43/43/43 55/55/55 56/56/56 44/44/44 
f 44/44/44 56/56/56 57/57/57 45/45/45 
f 45/45/45 57/57/57 58/58/58 46/46/46 
f 46/46/46 58/58/58 59/59/59 47/47/47 
f 47/47/47 59/59/59 60/60/60 48/48/48 
f 48/48/48 60/60/60 61/61/61 49/49/49 
f 49/49/49 61/61/61 50/50/50 38/38/38 
f 50/50/50 62/62/62 63/63/63 51/51/51 
f 51/51/51 63/63/63 64/64/64 52/52/52 
f 52/52/52 64/64/64 65/65/65 53/53/53 
f 53/53/53 65/65/65 66/66/66 54/54/54 
f 54/54/54 66/66/66 67/67/67 55/55/55 
f 55/55/55 67/67/67 68/68/68 56/56/56 
f 56/56/56 68/68/68 69/69/69 57/57/57 
f 57/57/57 69/69/69 70/70/70 58/58/58 
f 58/58/58 70/70/70 71/71/71 59/59/59 
f 59/59/59 71/71/71 72/72/72 60/60/60 
f 60/60/60 72/72/72 73/73/73 61/61/61 
f 61/61/61 73/73/73 62/62/62 50/50/50 
f 62/74/62 74/75/74 75/76/75 63/77/63 
f 63/77/63 75/76/75 76/78/76 64/79/64 
f 64/79/64 76/78/76 77/80/77 65/81/65 
f 65/81/65 77/80/77 78/82/78 66/83/66 
f 66/83/66 78/82/78 79/84/79 67/85/67 
f 67/85/67 79/84/79 80/86/80 68/65/68 
f 68/65/68 80/86/80 81/87/81 69/88/69 
f 69/88/69 81/87/81 82/89/82 70/90/70 
f 70/90/70 82/89/82 83/91/83 71/92/71 
f 71/92/71 83/91/83 84/93/84 72/94/72 
f 72/94/72 84/93/84 85/95/85 73/96/73 
f 73/96/73 85/95/85 74/97/74 62/98/62 
f 86/62/86 87/50/87 88/51/88 89/63/89 
f 89/63/89 88/51/88 90/52/90 91/64/91 
f 91/64/91 90/52/90 92/53/92 93/65/93 
f 93/65/93 92/53/92 94/54/94 95/66/95 
f 95/66/95 94/54/94 96/55/96 97/67/97 
f 97/67/97 96/55/96 98/56/98 99/68/99 
f 99/68/99 98/56/98 100/57/100 101/69/101 
f 101/69/101 100/57/100 102/58/102 103/70/103 
f 103/70/103 102/58/102 104/59/104 105/71/105 
f 105/71/105 104/59/104 106/60/106 107/72/107 
f 107/72/107 106/60/106 108/61/108 109/73/109 
f 109/73/109 108/61/108 87/50/87 86/62/86 
f 87/50/87 110/38/110 111/39/111 88/51/88 
f 88/51/88 111/39/111 112/40/112 90/52/90 
f 90/52/90 112/40/112 113/41/113 92/53/92 
f 92/53/92 113/41/113 114/42/114 94/54/94 
f 94/54/94 114/42/114 115/43/115 96/55/96 
f 96/55/96 115/43/115 116/44/116 98/56/98 
f 98/56/98 116/44/116 117/45/117 100/57/100 
f 100/57/100 117/45/117 118/46/118 102/58/102 
f 102/58/102 118/46/118 119/47/119 104/59/104 
f 104/59/104 119/47/119 120/48/120 106/60/106 
f 106/60/106 120/48/120 121/49/121 108/61/108 
f 108/61/108 121/49/121 110/38/110 87/50/87 
f 110/38/110 122/26/122 123/27/123 111/39/111 
f 111/39/111 123/27/123 124/28/124 112/40/112 
f 112/40/112 124/28/124 125/29/125 113/41/113 
f 113/41/113 125/29/125 126/30/126 114/42/114 
f 114/42/114 126/30/126 127/31/127 115/43/115 
f 115/43/115 127/31/127 128/32/128 116/44/116 
f 116/44/116 128/32/128 129/33/129 117/45/117 
f 117/45/117 129/33/129 130/34/130 118/46/118 
f 118/46/118 130/34/130 131/35/131 119/47/119 
f 119/47/119 131/35/131 132/36/132 120/48/120 
f 120/48/120 132/36/132 133/37/133 121/49/121 
f 121/49/121 133/37/133 122/26/122 110/38/110 
f 122/26/122 134/14/134 135/15/135 123/27/123 
f 123/27/123 135/15/135 136/16/136 124/28/124 
f 124/28/124 136/16/136 137/17/137 125/29/125 
f 125/29/125 137/17/137 138/18/138 126/30/126 
f 126/30/126 138/18/138 139/19/139 127/31/127 
f 127/31/127 139/19/139 140/20/140 128/32/128 
f 128/32/128 140/20/140 141/21/141 129/33/129 
f 129/33/129 141/21/141 142/22/142 130/34/130 
f 130/34/130 142/22/142 143/23/143 131/35/131 
f 131/35/131 143/23/143 144/24/144 132/36/132 
f 132/36/132 144/24/144 145/25/145 133/37/133 
f 133/37/133 145/25/145 134/14/134 122/26/122 
f 134/14/134 146/2/146 147/3/147 135/15/135 
f 135/15/135 147/3/147 148/4/148 136/16/136 
f 136/16/136 148/4/148 149/5/149 137/17/137 
f 137/17/137 149/5/149 150/6/150 138/18/138 
f 138/18/138 150/6/150 151/7/151 139/19/139 
f 139/19/139 151/7/151 152/8/152 140/20/140 
f 140/20/140 152/8/152 153/9/153 141/21/141 
f 141/21/141 153/9/153 154/10/154 142/22/142 
f 142/22/142 154/10/154 155/11/155 143/23/143 
f 143/23/143 155/11/155 156/12/156 144/24/144 
f 144/24/144 156/12/156 157/13/157 145/25/145 
f 145/25/145 157/13/157 146/2/146 134/14/134 
f 146/2/146 158/1/158 147/3/147 
f 147/3/147 158/1/158 148/4/148 
f 148/4/148 158/1/158 149/5/149 
f 149/5/149 158/1/158 150/6/150 
f 150/6/150 158/1/158 151/7/151 
f 151/7/151 158/1/158 152/8/152 
f 152/8/152 158/1/158 153/9/153 
f 153/9/153 158/1/158 154/10/154 
f 154/10/154 158/1/158 155/11/155 
f 155/11/155 158/1/158 156/12/156 
f 156/12/156 158/1/158 157/13/157 
f 157/13/157 158/1/158 146/2/146 
f 159/75/159 160/99/160 161/100/161 162/76/162 
f 162/76/162 161/100/161 163/101/163 164/78/164 
f 164/78/164 163/101/163 165/102/165 166/80/166 
f 166/80/166 165/102/165 167/103/167 168/82/168 
f 168/82/168 167/103/167 169/104/169 170/84/170 
f 170/84/170 169/104/169 171/105/171 172/86/172 
f 172/86/172 171/105/171 173/106/173 174/87/174 
f 174/87/174 173/106/173 175/107/175 176/89/176 
f 176/89/176 175/107/175 177/108/177 178/91/178 
f 178/91/178 177/108/177 179/109/179 180/93/180 
f 180/93/180 179/109/179 181/110/181 182/95/182 
f 182/95/182 181/110/181 160/111/160 159/97/159 
f 160/99/160 86/112/86 89/113/89 161/100/161 
f 161/100/161 89/113/89 91/114/91 163/101/163 
f 163/101/163 91/114/91 93/115/93 165/102/165 
f 165/102/165 93/115/93 95/116/95 167/103/167 
f 167/103/167 95/116/95 97/117/97 169/104/169 
f 169/104/169 97/117/97 99/71/99 171/105/171 
f 171/105/171 99/71/99 101/118/101 173/106/173 
f 173/106/173 101/118/101 103/119/103 175/107/175 
f 175/107/175 103/119/103 105/120/105 177/108/177 
f 177/108/177 105/120/105 107/121/107 179/109/179 
f 179/109/179 107/121/107 109/122/109 181/110/181 
f 181/110/181 109/122/109 86/123/86 160/111/160 
s 1
f 75/76/75 74/75/74 159/75/159 162/76/162 
f 74/97/74 85/95/85 182/95/182 159/97/159 
f 85/95/85 84/93/84 180/93/180 182/95/182 
f 84/93/84 83/91/83 178/91/178 180/93/180 
f 83/91/83 82/89/82 176/89/176 178/91/178 
f 82/89/82 81/87/81 174/87/174 176/89/176 
f 81/87/81 80/86/80 172/86/172 174/87/174 
f 80/86/80 79/84/79 170/84/170 172/86/172 
f 79/84/79 78/82/78 168/82/168 170/84/170 
f 78/82/78 77/80/77 166/80/166 168/82/168 
f 77/80/77 76/78/76 164/78/164 166/80/166 
f 76/78/76 75/76/75 162/76/162 164/78/164 
# 168 polygons - 24 triangles

